<?xml version="1.0" encoding="UTF-8"?><svg id="Layer_2" xmlns="http://www.w3.org/2000/svg" viewBox="0 0 307.69 50.87"><defs><style>.cls-1{fill:#f8cde1;}.cls-1,.cls-2,.cls-3{stroke-width:0px;}.cls-2{fill:#acc9e1;}.cls-3{fill:#b8b5da;}</style></defs><path class="cls-3" d="m22.39,15.34l-3.42-.4-4.79-.07c-.18,1.66-.07,4.9-.11,7.42-.04,1.73.14,3.49.4,8.78l.14,1.87c-1.15.76-3.35.9-6.73.72l-.14-2.48.4-9.29.29-7.09c-1.48-.11-2.95-.11-4.72.04l-2.81.5c-.22-1.08-.22-2.77-.22-3.31,0-.22.29-2.02.54-2.84l2.27.29c2.27.04,4.07-.04,8.1,0,2.88.04,7.63-.29,7.63-.29l3.17-.18c.25.94.22,4.86,0,6.33Z"/><path class="cls-3" d="m38.09,35.71c-.68.07-2.12-.07-2.92-.32l.07-2.66c.04-1.76.4-3.74.14-6.19-.04-2.88-.47-4.21-.9-5.62-.22-.68-.43-1.26-.97-1.26-1.3,0-2.3,2.45-2.66,3.46l.4,3.92.65,5.98.22,2.2c-1.94.61-3.78.86-5.87.68l-.25-2.34-.47-4.36c-.29-2.48-.58-5.4-.9-8.6-.14-1.76-.94-11.05-2.52-19.87C23.76.26,25.09,0,25.85,0,26.35,0,26.89,0,28.73.44l.22,2.02c.25,2.2.22,5.33.61,8.6.25,1.94.25,4.5.43,6.23.68-1.73,3.28-3.13,4.46-3.24,1.73-.07,4.03,1.33,5.18,4.07.76,1.8,1.66,5.87,1.66,12.27,0,.76,0,1.62-.04,2.45-.04.29-.11,2.23-.04,2.56,0,0-2.41.4-3.13.32Z"/><path class="cls-3" d="m55.15,29.05c.4,0,1.94-.22,4.07-.5-.29,2.48-1.08,4.75-2.38,6.88l-2.56-.47c-1.73-.29-3.49-.76-4.86-1.48h.04c-2.38-1.15-3.96-2.52-4.86-4.17-1.22-2.23-1.73-4.57-1.73-6.95,0-1.4.29-3.02.79-4.32,1.66-4,4.43-6.16,8.03-5.9h-.04c5.51.32,8.21,4.28,8.06,11.84l-10.19,1.84c.9,2.27,2.74,3.24,5.62,3.24Zm-2.16-8.46c-.07-1.04-.04-1.69-.32-2.48-.32-.79-.76-1.04-1.37-1.04-.5-.04-1.44.65-1.87,1.84-.29.86-.43,1.69-.43,2.38,1.3-.25,2.63-.43,4-.68Z"/><path class="cls-2" d="m85.21,31.61c-2.27,2.02-5.98,3.17-11.27,3.35-.18-2.48-.65-7.85-1.22-13.28,0-.07-.04-.18-.04-.29-.18-1.84-.5-5.33-2.48-10.87l3.92-1.73c1.55-.68,3.2-1.12,4.72-1.12,1.91,0,3.42.58,4.43,1.51,1.12,1.12,1.69,2.41,1.69,3.85,0,1.55-.54,3.17-1.69,4.93,1.3.47,2.48,1.22,3.31,2.16,1.33,1.48,2.05,3.13,2.05,4.9,0,2.41-1.15,4.57-3.42,6.59Zm-7.16-19.22c-.29-.04-1.4.14-2.05.47.32,1.26.65,3.24,1.22,5.9.97-.72,1.98-1.87,1.98-1.87.61-.76.72-1.8.58-2.74-.18-.94-.79-1.58-1.73-1.76Zm2.52,10.33c-.22-.11-1.37-.11-2.27.25.14,1.44.47,4.18.76,5.98.29-.22,1.62-1.01,1.87-1.22.72-.76,1.12-1.69,1.12-2.74.04-1.01-.47-1.94-1.48-2.27Z"/><path class="cls-2" d="m104.25,34.56c-1.73,1.08-3.2,1.4-4.5,1.3-.65-.72-.97-3.13-.97-3.13-.79.29-2.45,1.12-3.35,1.12-3.71,0-6.88-1.8-6.88-5.76,0-.68.07-1.33.25-1.98.43-1.58,1.37-3.17,2.7-4.28,1.22-1.01,2.77-1.48,4.57-1.48.68,0,1.58.14,2.2.29v-.94l-.07-1.55c-.25-1.55-.54-1.44-1.26-1.26-.32.07-2.3.65-2.66.83-.72.43-1.66.86-2.56,1.73-.68-.47-1.01-1.58-1.33-2.77-.22-.76-.22-2.23-.04-2.77,2.05-1.44,4.25-2.16,6.66-2.16,1.15,0,2.16.18,2.99.5,2.02.61,3.46,1.91,4,3.74.36,1.08.5,2.56.5,4.36,0,.86-.07,1.98-.07,2.99-.04,1.58-.04,2.3-.04,3.13,0,3.64.36,5.72,1.33,6.48,0,0-.76,1.19-1.48,1.62Zm-8.06-10.3c-.76,0-1.33,2.12-1.33,3.13,0,1.55.43,2.23,1.08,2.23.86,0,2.12-.43,2.45-1.51l-.04-2.77-.29-.29c-.58-.58-1.37-.79-1.87-.79Z"/><path class="cls-2" d="m122.36,38.95c-1.87-1.55-2.48-2.59-3.85-4.79-1.04-1.98-2.3-4.97-3.24-7.67l-.61.76c.36,4.25.4,2.74.54,8.14-2.52.4-3.96.32-5.9.18-.14-4.61.04-1.73-.22-4.54-.25-3.06-.65-7.16-1.19-12.38-.58-5.65-1.22-11.12-1.58-16.09,1.44-.65,2.63-.94,3.6-.94.4,0,1.37-.14,3.02.18,0,0-.18,1.91-.18,3.6.36,4.57.83,8.21,1.22,12.74.04.79.11,1.55.18,2.27.68-.72,1.48-1.66,2.59-3.06l4-5.11c1.62,1.26,2.88,2.38,4.86,4.9,0,0-2.88,2.16-3.67,3.02-1.19,1.19-2.05,1.73-2.88,2.99.36.76.86,1.69,1.33,2.81,1.26,2.2,1.8,3.82,3.35,5.97,1.58,2.27,2.84,2.74,4.32,2.27l.43,4.64c-2.92.79-6.12.11-6.12.11Z"/><path class="cls-2" d="m130.71,13.5c-1.69,0-3.6-1.37-3.6-3.17s1.84-3.13,3.6-3.13c1.91,0,3.46,1.33,3.6,3.13-.11,1.87-1.73,3.17-3.6,3.17Zm1.62,21.24c-.43,0-.94,0-2.99-.36-.18-3.71-.72-10.87-1.44-17.49,1.94-.61,4-.86,6.08-.58l.25,2.27-.04-.07c.11.65.29,3.31.58,6.55.14,1.58.47,5,.65,9.18,0,0-2.05.43-3.09.5Z"/><path class="cls-2" d="m154.29,31.57c0,.36,0,.68.25,3.1l-7.05-1.3c.22-1.37.22-2.09.32-2.84.14-.97.32-3.24.68-5.11.25-1.44.47-2.77.47-4.36,0-.94-.18-1.73-.54-1.98-.65.04-3.1,2.23-4.14,3.56.07,2.27.04,3.24,0,4.28-.04.86-.18,6.16-.04,6.73l-6.26.54s.4-7.92.43-10.26c.04-2.12-.58-9.54-.58-9.54,1.19-.29,3.53-.76,5.9-.5,0,0,.14,2.88.14,3.31.86-1.33,2.88-3.17,4.68-3.56.76-.18,2.16,0,2.81.25,3.1,1.33,3.74,4.07,3.74,6.77,0,1.22-.29,2.81-.43,4.18-.22,1.3-.4,4.46-.4,6.73Z"/><path class="cls-2" d="m171.75,13.11c1.76,1.55,4.03,4.28,4.03,6.3,0,5.08-3.53,8.35-8.96,8.35-.36,0-2.23-.07-2.99-.36-.5.5-.22,1.62-.22,1.62,0,.14.32.65.9,1.04.5-.25,2.09-.4,2.7-.4,4.21,0,7.78,2.92,7.78,7.99,0,2.59-.4,4.54-2.52,6.37-1.22,1.04-3.78,1.91-5.98,1.91-3.24,0-9-2.84-9-8.93,0-2.09.65-3.74,2.02-5.04-1.12-1.26-1.76-2.45-1.76-3.53,0-1.37.5-2.23,1.91-3.02-1.69-1.48-2.92-3.35-2.92-4.75s.18-2.81,1.22-4.39c2.16-3.24,5.26-4.36,8.71-4.36h1.01c1.04-2.7,3.31-4.21,6.59-4.21.94,0,1.91.04,1.91.04.54,1.58.54,2.2.54,2.84,0,.47-.22,1.44-.4,2.12l-.94-.4c-.5.07-2.52-.47-3.63.79Zm-2.09,6.08c0-1.08-.83-2.45-2.34-2.45-.65,0-1.58.18-2.16.43-.61.29-1.94,2.09-1.94,3.42,0,.25.25.72.58,1.08.72.9,1.01,1.22,2.99,1.22,1.84,0,2.66-1.22,2.84-3.31v-.07c.04-.11.04-.18.04-.32Zm-4.03,15.3c-1.12,0-2.02.68-2.02,2.48,0,1.3.07,2.56.54,3.13.61.72,1.69,1.04,2.16,1.01.83-.04,2.23-.61,2.23-2.12,0-1.08.14-4.5-2.92-4.5Z"/><path class="cls-1" d="m204.08,20.99c-1.37,2.05-3.1,3.1-5.29,4.14-1.12.5-2.52.79-4.21.83.25,3.56.61,6.95.79,10.33-2.74.65-4.86.79-6.48.29.14-2.38.07-3.49.07-4.86,0-.79-.22-6.66-.61-18.65l-1.33.36-.36-5.11c2.02-.54,7.05-1.8,9.86-1.8,4.61,0,7.63,1.37,9.04,4.1.58,1.04.83,2.16.83,3.31,0,2.05-.94,4.9-2.3,7.05Zm-4.9-8.71c-.94-.5-2.05-.47-3.35-.5-.4,0-1.01.07-1.84.22.11,3.24.25,5.94.4,9.11,1.44,0,2.63-.4,3.53-1.22.94-.76,2.23-3.2,2.27-5.25,0-1.12-.32-1.91-1.01-2.34Z"/><path class="cls-1" d="m222.44,34.56c-1.73,1.08-3.2,1.4-4.5,1.3-.65-.72-.97-3.13-.97-3.13-.79.29-2.45,1.12-3.35,1.12-3.71,0-6.88-1.8-6.88-5.76,0-.68.07-1.33.25-1.98.43-1.58,1.37-3.17,2.7-4.28,1.22-1.01,2.77-1.48,4.57-1.48.68,0,1.58.14,2.2.29v-.94l-.07-1.55c-.25-1.55-.54-1.44-1.26-1.26-.32.07-2.3.65-2.66.83-.72.43-1.66.86-2.56,1.73-.68-.47-1.01-1.58-1.33-2.77-.22-.76-.22-2.23-.04-2.77,2.05-1.44,4.25-2.16,6.66-2.16,1.15,0,2.16.18,2.99.5,2.02.61,3.46,1.91,4,3.74.36,1.08.5,2.56.5,4.36,0,.86-.07,1.98-.07,2.99-.04,1.58-.04,2.3-.04,3.13,0,3.64.36,5.72,1.33,6.48,0,0-.76,1.19-1.48,1.62Zm-8.06-10.3c-.76,0-1.33,2.12-1.33,3.13,0,1.55.43,2.23,1.08,2.23.86,0,2.12-.43,2.45-1.51l-.04-2.77-.29-.29c-.58-.58-1.37-.79-1.87-.79Z"/><path class="cls-1" d="m225.93,35.14s.11-3.71.14-5.58c.25-3.82.11-7.06.11-11.38,0-4.75.07-9.68-.14-14.33.07-.9-.32-2.05-.58-2.74,1.62-.61,2.77-.83,3.92-.76.36,0,2.7.22,3.17.29-.54,6.66-.32,9.43-.47,14.43-.04,2.05-.04,9.07-.11,13.39-.04,2.52.18,5.08.25,6.34-.68.36-4.79.83-6.3.32Z"/><path class="cls-1" d="m246.85,29.05c.4,0,1.94-.22,4.07-.5-.29,2.48-1.08,4.75-2.38,6.88l-2.56-.47c-1.73-.29-3.49-.76-4.86-1.48h.04c-2.38-1.15-3.96-2.52-4.86-4.17-1.22-2.23-1.73-4.57-1.73-6.95,0-1.4.29-3.02.79-4.32,1.66-4,4.43-6.16,8.03-5.9h-.04c5.51.32,8.21,4.28,8.06,11.84l-10.19,1.84c.9,2.27,2.74,3.24,5.62,3.24Zm-2.16-8.46c-.07-1.04-.04-1.69-.32-2.48-.32-.79-.76-1.04-1.37-1.04-.5-.04-1.44.65-1.87,1.84-.29.86-.43,1.69-.43,2.38,1.3-.25,2.63-.43,4-.68Z"/><path class="cls-1" d="m262.18,21.46c0,1.3-.07,3.64-.07,6.73,0,1.19.25,2.41,1.08,2.41.61-.07,2.45-2.77,2.59-3.13,1.98.29,3.49.94,4.68,2.41-1.58,4.68-6.08,6.88-9.32,6.88-.4,0-.9-.04-1.33-.14h.04c-2.74-.58-4.14-2.81-4.1-6.73,0-.68,0-2.27.04-4.71v-3.13c-1.15.11-2.34.18-2.84.22v-5.51c.94,0,2.34.11,2.74.07,0-1.15,0-2.2.07-2.88.07-2.23.36-5.47.58-8.75,2.41-.25,4.5-.04,6.23.65l-.07,2.2-.11,1.44c-.04,1.33-.18,2.41-.29,4.75-.07.83-.07.43-.07,1.98,1.12-.11,2.52-.18,3.64-.25l2.92-.18c.54,1.12.5,2.23.5,3.02,0,.47-.11,2.05-.22,2.59l-3.56.04c-.72,0-2.23,0-3.1.04Z"/><path class="cls-1" d="m283.46,20.56c-.68,0-1.44,0-2.3.04,0,1.12.04,1.26.04,4.14.07,1.73.68,2.48,1.48,2.45.97-.04,2.52-1.48,3.09-2.2.97.58,2.81,2.3,3.28,3.28-1.51,3.56-5.65,5.51-8.78,5.51-.4,0-.9-.04-1.26-.14-2.66-.58-4-2.74-3.96-6.55,0-.65,0-2.05.04-4.43v-1.62c-1.15.11-3.31.25-3.78.29-.29-1.55-.22-4.21-.04-5.47.94.11,3.31-.04,3.71-.07.04-2.95.04-6.59.61-9.68,2.34-.22,4.28,0,5.98.65-.29,2.84-.54,5.47-.47,8.42,1.22.11,2.63.04,3.71-.04l2.34-.32c.47,1.08.61,2.2.61,2.99,0,.43-.07,2.09-.18,2.59l-1.44.11c-.68.07-1.58.07-2.66.07Z"/><path class="cls-1" d="m302.18,29.05c.4,0,1.94-.22,4.07-.5-.29,2.48-1.08,4.75-2.38,6.88l-2.56-.47c-1.73-.29-3.49-.76-4.86-1.48h.04c-2.38-1.15-3.96-2.52-4.86-4.17-1.22-2.23-1.73-4.57-1.73-6.95,0-1.4.29-3.02.79-4.32,1.66-4,4.43-6.16,8.03-5.9h-.04c5.51.32,8.21,4.28,8.06,11.84l-10.19,1.84c.9,2.27,2.74,3.24,5.62,3.24Zm-2.16-8.46c-.07-1.04-.04-1.69-.32-2.48-.32-.79-.76-1.04-1.37-1.04-.5-.04-1.44.65-1.87,1.84-.29.86-.43,1.69-.43,2.38,1.3-.25,2.63-.43,4-.68Z"/></svg>