<?xml version="1.0" encoding="utf-8"?>
<!-- Generator: Adobe Illustrator 28.0.0, SVG Export Plug-In . SVG Version: 6.00 Build 0)  -->
<svg version="1.1" xmlns="http://www.w3.org/2000/svg" xmlns:xlink="http://www.w3.org/1999/xlink" x="0px" y="0px"
	 viewBox="0 0 314 64" style="enable-background:new 0 0 314 64;" xml:space="preserve">
<style type="text/css">
	.st0{display:none;}
	.st1{display:inline;}
	.st2{fill:#B8B5DA;}
	.st3{font-family:'Chaloops-Bold';}
	.st4{font-size:36px;}
	.st5{fill:#ACC9E1;}
	.st6{fill:#D6E7F7;}
	.st7{fill:#F8CDE1;}
	.st8{fill:#EEEEF7;}
	.st9{fill:#DCF1FC;}
	.st10{fill:#FDEBF3;}
</style>
<g id="Layer_1" class="st0">
	<text transform="matrix(1 0 0 1 0.5828 42.3843)" class="st1"><tspan x="0" y="0" class="st2 st3 st4">The </tspan><tspan x="71.14" y="0" class="st5 st3 st4">Baking</tspan><tspan x="179.06" y="0" class="st6 st3 st4"> </tspan><tspan x="188.71" y="0" class="st7 st3 st4">Palette</tspan></text>
	<text transform="matrix(1 0 0 1 0.5828 42.3843)" class="st1"><tspan x="0" y="0" class="st2 st3 st4">The </tspan><tspan x="71.14" y="0" class="st5 st3 st4">Baking</tspan><tspan x="179.06" y="0" class="st6 st3 st4"> </tspan><tspan x="188.71" y="0" class="st7 st3 st4">Palette</tspan></text>
</g>
<g id="Layer_2" class="st0">
	<g class="st1">
		<path class="st2" d="M25.54,24.67l-3.42-0.4l-4.79-0.07c-0.18,1.66-0.07,4.9-0.11,7.42c-0.04,1.73,0.14,3.49,0.4,8.78l0.14,1.87
			c-1.15,0.76-3.35,0.9-6.73,0.72l-0.14-2.48l0.4-9.29l0.29-7.09c-1.48-0.11-2.95-0.11-4.72,0.04l-2.81,0.5
			c-0.22-1.08-0.22-2.77-0.22-3.31c0-0.22,0.29-2.02,0.54-2.84l2.27,0.29c2.27,0.04,4.07-0.04,8.1,0c2.88,0.04,7.63-0.29,7.63-0.29
			l3.17-0.18C25.8,19.27,25.76,23.2,25.54,24.67z"/>
		<path class="st2" d="M41.24,45.05c-0.68,0.07-2.12-0.07-2.92-0.32l0.07-2.66c0.04-1.76,0.4-3.74,0.14-6.19
			c-0.04-2.88-0.47-4.21-0.9-5.62c-0.22-0.68-0.43-1.26-0.97-1.26c-1.3,0-2.3,2.45-2.66,3.46l0.4,3.92l0.65,5.98l0.22,2.2
			c-1.94,0.61-3.78,0.86-5.87,0.68l-0.25-2.34l-0.47-4.36c-0.29-2.48-0.58-5.4-0.9-8.6c-0.14-1.76-0.94-11.05-2.52-19.87
			c1.66-0.47,2.99-0.72,3.74-0.72c0.5,0,1.04,0,2.88,0.43l0.22,2.02c0.25,2.2,0.22,5.33,0.61,8.6c0.25,1.94,0.25,4.5,0.43,6.23
			c0.68-1.73,3.28-3.13,4.46-3.24c1.73-0.07,4.03,1.33,5.18,4.07c0.76,1.8,1.66,5.87,1.66,12.27c0,0.76,0,1.62-0.04,2.45
			c-0.04,0.29-0.11,2.23-0.04,2.56C44.37,44.72,41.96,45.12,41.24,45.05z"/>
		<path class="st2" d="M58.31,38.39c0.4,0,1.94-0.22,4.07-0.5c-0.29,2.48-1.08,4.75-2.38,6.88l-2.56-0.47
			c-1.73-0.29-3.49-0.76-4.86-1.48h0.04c-2.38-1.15-3.96-2.52-4.86-4.17c-1.22-2.23-1.73-4.57-1.73-6.95c0-1.4,0.29-3.02,0.79-4.32
			c1.66-4,4.43-6.16,8.03-5.9h-0.04c5.51,0.32,8.21,4.28,8.06,11.84l-10.19,1.84C53.59,37.42,55.43,38.39,58.31,38.39z M56.15,29.93
			c-0.07-1.04-0.04-1.69-0.32-2.48c-0.32-0.79-0.76-1.04-1.37-1.04c-0.5-0.04-1.44,0.65-1.87,1.84c-0.29,0.86-0.43,1.69-0.43,2.38
			C53.45,30.36,54.78,30.18,56.15,29.93z"/>
		<path class="st5" d="M88.37,40.94c-2.27,2.02-5.98,3.17-11.27,3.35c-0.18-2.48-0.65-7.85-1.22-13.28c0-0.07-0.04-0.18-0.04-0.29
			c-0.18-1.84-0.5-5.33-2.48-10.87l3.92-1.73c1.55-0.68,3.2-1.12,4.72-1.12c1.91,0,3.42,0.58,4.43,1.51
			c1.12,1.12,1.69,2.41,1.69,3.85c0,1.55-0.54,3.17-1.69,4.93c1.3,0.47,2.48,1.22,3.31,2.16c1.33,1.48,2.05,3.13,2.05,4.9
			C91.79,36.77,90.63,38.93,88.37,40.94z M81.2,21.72c-0.29-0.04-1.4,0.14-2.05,0.47c0.32,1.26,0.65,3.24,1.22,5.9
			c0.97-0.72,1.98-1.87,1.98-1.87c0.61-0.76,0.72-1.8,0.58-2.74C82.75,22.55,82.14,21.9,81.2,21.72z M83.72,32.05
			c-0.22-0.11-1.37-0.11-2.27,0.25c0.14,1.44,0.47,4.18,0.76,5.98c0.29-0.22,1.62-1.01,1.87-1.22c0.72-0.76,1.12-1.69,1.12-2.74
			C85.23,33.31,84.73,32.38,83.72,32.05z"/>
		<path class="st5" d="M107.41,43.9c-1.73,1.08-3.2,1.4-4.5,1.3c-0.65-0.72-0.97-3.13-0.97-3.13c-0.79,0.29-2.45,1.12-3.35,1.12
			c-3.71,0-6.88-1.8-6.88-5.76c0-0.68,0.07-1.33,0.25-1.98c0.43-1.58,1.37-3.17,2.7-4.28c1.22-1.01,2.77-1.48,4.57-1.48
			c0.68,0,1.58,0.14,2.2,0.29v-0.94l-0.07-1.55c-0.25-1.55-0.54-1.44-1.26-1.26c-0.32,0.07-2.3,0.65-2.66,0.83
			c-0.72,0.43-1.66,0.86-2.56,1.73c-0.68-0.47-1.01-1.58-1.33-2.77c-0.22-0.76-0.22-2.23-0.04-2.77c2.05-1.44,4.25-2.16,6.66-2.16
			c1.15,0,2.16,0.18,2.99,0.5c2.02,0.61,3.46,1.91,4,3.74c0.36,1.08,0.5,2.56,0.5,4.36c0,0.86-0.07,1.98-0.07,2.99
			c-0.04,1.58-0.04,2.3-0.04,3.13c0,3.64,0.36,5.72,1.33,6.48C108.88,42.28,108.13,43.46,107.41,43.9z M99.35,33.6
			c-0.76,0-1.33,2.12-1.33,3.13c0,1.55,0.43,2.23,1.08,2.23c0.86,0,2.12-0.43,2.45-1.51l-0.04-2.77l-0.29-0.29
			C100.64,33.82,99.85,33.6,99.35,33.6z"/>
		<path class="st5" d="M125.52,48.29c-1.87-1.55-2.48-2.59-3.85-4.79c-1.04-1.98-2.3-4.97-3.24-7.67l-0.61,0.76
			c0.36,4.25,0.4,2.74,0.54,8.14c-2.52,0.4-3.96,0.32-5.9,0.18c-0.14-4.61,0.04-1.73-0.22-4.54c-0.25-3.06-0.65-7.16-1.19-12.38
			c-0.58-5.65-1.22-11.12-1.58-16.09c1.44-0.65,2.63-0.94,3.6-0.94c0.4,0,1.37-0.14,3.02,0.18c0,0-0.18,1.91-0.18,3.6
			c0.36,4.57,0.83,8.21,1.22,12.74c0.04,0.79,0.11,1.55,0.18,2.27c0.68-0.72,1.48-1.66,2.59-3.06l4-5.11
			c1.62,1.26,2.88,2.38,4.86,4.9c0,0-2.88,2.16-3.67,3.02c-1.19,1.19-2.05,1.73-2.88,2.99c0.36,0.76,0.86,1.69,1.33,2.81
			c1.26,2.2,1.8,3.82,3.35,5.97c1.58,2.27,2.84,2.74,4.32,2.27l0.43,4.64C128.72,48.97,125.52,48.29,125.52,48.29z"/>
		<path class="st5" d="M133.87,22.84c-1.69,0-3.6-1.37-3.6-3.17s1.84-3.13,3.6-3.13c1.91,0,3.46,1.33,3.6,3.13
			C137.36,21.54,135.74,22.84,133.87,22.84z M135.49,44.08c-0.43,0-0.94,0-2.99-0.36c-0.18-3.71-0.72-10.87-1.44-17.49
			c1.94-0.61,4-0.86,6.08-0.58l0.25,2.27l-0.04-0.07c0.11,0.65,0.29,3.31,0.58,6.55c0.14,1.58,0.47,5,0.65,9.18
			C138.58,43.57,136.53,44,135.49,44.08z"/>
		<path class="st5" d="M157.45,40.91c0,0.36,0,0.68,0.25,3.1l-7.05-1.3c0.22-1.37,0.22-2.09,0.32-2.84
			c0.14-0.97,0.32-3.24,0.68-5.11c0.25-1.44,0.47-2.77,0.47-4.36c0-0.94-0.18-1.73-0.54-1.98c-0.65,0.04-3.1,2.23-4.14,3.56
			c0.07,2.27,0.04,3.24,0,4.28c-0.04,0.86-0.18,6.16-0.04,6.73l-6.26,0.54c0,0,0.4-7.92,0.43-10.26c0.04-2.12-0.58-9.54-0.58-9.54
			c1.19-0.29,3.53-0.76,5.9-0.5c0,0,0.14,2.88,0.14,3.31c0.86-1.33,2.88-3.17,4.68-3.56c0.76-0.18,2.16,0,2.81,0.25
			c3.1,1.33,3.74,4.07,3.74,6.77c0,1.22-0.29,2.81-0.43,4.18C157.63,35.47,157.45,38.64,157.45,40.91z"/>
		<path class="st5" d="M174.91,22.44c1.76,1.55,4.03,4.28,4.03,6.3c0,5.08-3.53,8.35-8.96,8.35c-0.36,0-2.23-0.07-2.99-0.36
			c-0.5,0.5-0.22,1.62-0.22,1.62c0,0.14,0.32,0.65,0.9,1.04c0.5-0.25,2.09-0.4,2.7-0.4c4.21,0,7.78,2.92,7.78,7.99
			c0,2.59-0.4,4.54-2.52,6.37c-1.22,1.04-3.78,1.91-5.98,1.91c-3.24,0-9-2.84-9-8.93c0-2.09,0.65-3.74,2.02-5.04
			c-1.12-1.26-1.76-2.45-1.76-3.53c0-1.37,0.5-2.23,1.91-3.02c-1.69-1.48-2.92-3.35-2.92-4.75c0-1.44,0.18-2.81,1.22-4.39
			c2.16-3.24,5.26-4.36,8.71-4.36h1.01c1.04-2.7,3.31-4.21,6.59-4.21c0.94,0,1.91,0.04,1.91,0.04c0.54,1.58,0.54,2.2,0.54,2.84
			c0,0.47-0.22,1.44-0.4,2.12l-0.94-0.4C178.04,21.72,176.02,21.18,174.91,22.44z M172.82,28.53c0-1.08-0.83-2.45-2.34-2.45
			c-0.65,0-1.58,0.18-2.16,0.43c-0.61,0.29-1.94,2.09-1.94,3.42c0,0.25,0.25,0.72,0.58,1.08c0.72,0.9,1.01,1.22,2.99,1.22
			c1.84,0,2.66-1.22,2.84-3.31v-0.07C172.82,28.74,172.82,28.67,172.82,28.53z M168.79,43.82c-1.12,0-2.02,0.68-2.02,2.48
			c0,1.3,0.07,2.56,0.54,3.13c0.61,0.72,1.69,1.04,2.16,1.01c0.83-0.04,2.23-0.61,2.23-2.12C171.7,47.24,171.85,43.82,168.79,43.82z
			"/>
		<path class="st7" d="M207.24,30.33c-1.37,2.05-3.1,3.1-5.29,4.14c-1.12,0.5-2.52,0.79-4.21,0.83c0.25,3.56,0.61,6.95,0.79,10.33
			c-2.74,0.65-4.86,0.79-6.48,0.29c0.14-2.38,0.07-3.49,0.07-4.86c0-0.79-0.22-6.66-0.61-18.65l-1.33,0.36l-0.36-5.11
			c2.02-0.54,7.05-1.8,9.86-1.8c4.61,0,7.63,1.37,9.04,4.1c0.58,1.04,0.83,2.16,0.83,3.31C209.54,25.32,208.6,28.17,207.24,30.33z
			 M202.34,21.61c-0.94-0.5-2.05-0.47-3.35-0.5c-0.4,0-1.01,0.07-1.84,0.22c0.11,3.24,0.25,5.94,0.4,9.11c1.44,0,2.63-0.4,3.53-1.22
			c0.94-0.76,2.23-3.2,2.27-5.25C203.35,22.84,203.02,22.05,202.34,21.61z"/>
		<path class="st7" d="M225.6,43.9c-1.73,1.08-3.2,1.4-4.5,1.3c-0.65-0.72-0.97-3.13-0.97-3.13c-0.79,0.29-2.45,1.12-3.35,1.12
			c-3.71,0-6.88-1.8-6.88-5.76c0-0.68,0.07-1.33,0.25-1.98c0.43-1.58,1.37-3.17,2.7-4.28c1.22-1.01,2.77-1.48,4.57-1.48
			c0.68,0,1.58,0.14,2.2,0.29v-0.94l-0.07-1.55c-0.25-1.55-0.54-1.44-1.26-1.26c-0.32,0.07-2.3,0.65-2.66,0.83
			c-0.72,0.43-1.66,0.86-2.56,1.73c-0.68-0.47-1.01-1.58-1.33-2.77c-0.22-0.76-0.22-2.23-0.04-2.77c2.05-1.44,4.25-2.16,6.66-2.16
			c1.15,0,2.16,0.18,2.99,0.5c2.02,0.61,3.46,1.91,4,3.74c0.36,1.08,0.5,2.56,0.5,4.36c0,0.86-0.07,1.98-0.07,2.99
			c-0.04,1.58-0.04,2.3-0.04,3.13c0,3.64,0.36,5.72,1.33,6.48C227.07,42.28,226.32,43.46,225.6,43.9z M217.53,33.6
			c-0.76,0-1.33,2.12-1.33,3.13c0,1.55,0.43,2.23,1.08,2.23c0.86,0,2.12-0.43,2.45-1.51l-0.04-2.77l-0.29-0.29
			C218.83,33.82,218.04,33.6,217.53,33.6z"/>
		<path class="st7" d="M229.09,44.47c0,0,0.11-3.71,0.14-5.58c0.25-3.82,0.11-7.06,0.11-11.38c0-4.75,0.07-9.68-0.14-14.33
			c0.07-0.9-0.32-2.05-0.58-2.74c1.62-0.61,2.77-0.83,3.92-0.76c0.36,0,2.7,0.22,3.17,0.29c-0.54,6.66-0.32,9.43-0.47,14.43
			c-0.04,2.05-0.04,9.07-0.11,13.39c-0.04,2.52,0.18,5.08,0.25,6.34C234.7,44.51,230.6,44.98,229.09,44.47z"/>
		<path class="st7" d="M250,38.39c0.4,0,1.94-0.22,4.07-0.5c-0.29,2.48-1.08,4.75-2.38,6.88l-2.56-0.47
			c-1.73-0.29-3.49-0.76-4.86-1.48h0.04c-2.38-1.15-3.96-2.52-4.86-4.17c-1.22-2.23-1.73-4.57-1.73-6.95c0-1.4,0.29-3.02,0.79-4.32
			c1.66-4,4.43-6.16,8.03-5.9h-0.04c5.51,0.32,8.21,4.28,8.06,11.84l-10.19,1.84C245.29,37.42,247.12,38.39,250,38.39z
			 M247.84,29.93c-0.07-1.04-0.04-1.69-0.32-2.48c-0.32-0.79-0.76-1.04-1.37-1.04c-0.5-0.04-1.44,0.65-1.87,1.84
			c-0.29,0.86-0.43,1.69-0.43,2.38C245.14,30.36,246.48,30.18,247.84,29.93z"/>
		<path class="st7" d="M265.34,30.79c0,1.3-0.07,3.64-0.07,6.73c0,1.19,0.25,2.41,1.08,2.41c0.61-0.07,2.45-2.77,2.59-3.13
			c1.98,0.29,3.49,0.94,4.68,2.41c-1.58,4.68-6.08,6.88-9.32,6.88c-0.4,0-0.9-0.04-1.33-0.14H263c-2.74-0.58-4.14-2.81-4.1-6.73
			c0-0.68,0-2.27,0.04-4.71v-3.13c-1.15,0.11-2.34,0.18-2.84,0.22v-5.51c0.94,0,2.34,0.11,2.74,0.07c0-1.15,0-2.2,0.07-2.88
			c0.07-2.23,0.36-5.47,0.58-8.75c2.41-0.25,4.5-0.04,6.23,0.65l-0.07,2.2l-0.11,1.44c-0.04,1.33-0.18,2.41-0.29,4.75
			c-0.07,0.83-0.07,0.43-0.07,1.98c1.12-0.11,2.52-0.18,3.64-0.25l2.92-0.18c0.54,1.12,0.5,2.23,0.5,3.02
			c0,0.47-0.11,2.05-0.22,2.59l-3.56,0.04C267.72,30.76,266.2,30.76,265.34,30.79z"/>
		<path class="st7" d="M286.62,29.89c-0.68,0-1.44,0-2.3,0.04c0,1.12,0.04,1.26,0.04,4.14c0.07,1.73,0.68,2.48,1.48,2.45
			c0.97-0.04,2.52-1.48,3.09-2.2c0.97,0.58,2.81,2.3,3.28,3.28c-1.51,3.56-5.65,5.51-8.78,5.51c-0.4,0-0.9-0.04-1.26-0.14
			c-2.66-0.58-4-2.74-3.96-6.55c0-0.65,0-2.05,0.04-4.43v-1.62c-1.15,0.11-3.31,0.25-3.78,0.29c-0.29-1.55-0.22-4.21-0.04-5.47
			c0.94,0.11,3.31-0.04,3.71-0.07c0.04-2.95,0.04-6.59,0.61-9.68c2.34-0.22,4.28,0,5.98,0.65c-0.29,2.84-0.54,5.47-0.47,8.42
			c1.22,0.11,2.63,0.04,3.71-0.04l2.34-0.32c0.47,1.08,0.61,2.2,0.61,2.99c0,0.43-0.07,2.09-0.18,2.59l-1.44,0.11
			C288.59,29.89,287.69,29.89,286.62,29.89z"/>
		<path class="st7" d="M305.33,38.39c0.4,0,1.94-0.22,4.07-0.5c-0.29,2.48-1.08,4.75-2.38,6.88l-2.56-0.47
			c-1.73-0.29-3.49-0.76-4.86-1.48h0.04c-2.38-1.15-3.96-2.52-4.86-4.17c-1.22-2.23-1.73-4.57-1.73-6.95c0-1.4,0.29-3.02,0.79-4.32
			c1.66-4,4.43-6.16,8.03-5.9h-0.04c5.51,0.32,8.21,4.28,8.06,11.84l-10.19,1.84C300.62,37.42,302.46,38.39,305.33,38.39z
			 M303.18,29.93c-0.07-1.04-0.04-1.69-0.32-2.48c-0.32-0.79-0.76-1.04-1.37-1.04c-0.5-0.04-1.44,0.65-1.87,1.84
			c-0.29,0.86-0.43,1.69-0.43,2.38C300.48,30.36,301.81,30.18,303.18,29.93z"/>
	</g>
</g>
<g id="Layer_3">
	<g>
		<path class="st8" d="M25.54,24.67l-3.42-0.4l-4.79-0.07c-0.18,1.66-0.07,4.9-0.11,7.42c-0.04,1.73,0.14,3.49,0.4,8.78l0.14,1.87
			c-1.15,0.76-3.35,0.9-6.73,0.72l-0.14-2.48l0.4-9.29l0.29-7.09c-1.48-0.11-2.95-0.11-4.72,0.04l-2.81,0.5
			c-0.22-1.08-0.22-2.77-0.22-3.31c0-0.22,0.29-2.02,0.54-2.84l2.27,0.29c2.27,0.04,4.07-0.04,8.1,0c2.88,0.04,7.63-0.29,7.63-0.29
			l3.17-0.18C25.8,19.27,25.76,23.2,25.54,24.67z"/>
		<path class="st8" d="M41.24,45.05c-0.68,0.07-2.12-0.07-2.92-0.32l0.07-2.66c0.04-1.76,0.4-3.74,0.14-6.19
			c-0.04-2.88-0.47-4.21-0.9-5.62c-0.22-0.68-0.43-1.26-0.97-1.26c-1.3,0-2.3,2.45-2.66,3.46l0.4,3.92l0.65,5.98l0.22,2.2
			c-1.94,0.61-3.78,0.86-5.87,0.68l-0.25-2.34l-0.47-4.36c-0.29-2.48-0.58-5.4-0.9-8.6c-0.14-1.76-0.94-11.05-2.52-19.87
			c1.66-0.47,2.99-0.72,3.74-0.72c0.5,0,1.04,0,2.88,0.43l0.22,2.02c0.25,2.2,0.22,5.33,0.61,8.6c0.25,1.94,0.25,4.5,0.43,6.23
			c0.68-1.73,3.28-3.13,4.46-3.24c1.73-0.07,4.03,1.33,5.18,4.07c0.76,1.8,1.66,5.87,1.66,12.27c0,0.76,0,1.62-0.04,2.45
			c-0.04,0.29-0.11,2.23-0.04,2.56C44.37,44.72,41.96,45.12,41.24,45.05z"/>
		<path class="st8" d="M58.31,38.39c0.4,0,1.94-0.22,4.07-0.5c-0.29,2.48-1.08,4.75-2.38,6.88l-2.56-0.47
			c-1.73-0.29-3.49-0.76-4.86-1.48h0.04c-2.38-1.15-3.96-2.52-4.86-4.17c-1.22-2.23-1.73-4.57-1.73-6.95c0-1.4,0.29-3.02,0.79-4.32
			c1.66-4,4.43-6.16,8.03-5.9h-0.04c5.51,0.32,8.21,4.28,8.06,11.84l-10.19,1.84C53.59,37.42,55.43,38.39,58.31,38.39z M56.15,29.93
			c-0.07-1.04-0.04-1.69-0.32-2.48c-0.32-0.79-0.76-1.04-1.37-1.04c-0.5-0.04-1.44,0.65-1.87,1.84c-0.29,0.86-0.43,1.69-0.43,2.38
			C53.45,30.36,54.78,30.18,56.15,29.93z"/>
		<path class="st9" d="M88.37,40.94c-2.27,2.02-5.98,3.17-11.27,3.35c-0.18-2.48-0.65-7.85-1.22-13.28c0-0.07-0.04-0.18-0.04-0.29
			c-0.18-1.84-0.5-5.33-2.48-10.87l3.92-1.73c1.55-0.68,3.2-1.12,4.72-1.12c1.91,0,3.42,0.58,4.43,1.51
			c1.12,1.12,1.69,2.41,1.69,3.85c0,1.55-0.54,3.17-1.69,4.93c1.3,0.47,2.48,1.22,3.31,2.16c1.33,1.48,2.05,3.13,2.05,4.9
			C91.79,36.77,90.63,38.93,88.37,40.94z M81.2,21.72c-0.29-0.04-1.4,0.14-2.05,0.47c0.32,1.26,0.65,3.24,1.22,5.9
			c0.97-0.72,1.98-1.87,1.98-1.87c0.61-0.76,0.72-1.8,0.58-2.74C82.75,22.55,82.14,21.9,81.2,21.72z M83.72,32.05
			c-0.22-0.11-1.37-0.11-2.27,0.25c0.14,1.44,0.47,4.18,0.76,5.98c0.29-0.22,1.62-1.01,1.87-1.22c0.72-0.76,1.12-1.69,1.12-2.74
			C85.23,33.31,84.73,32.38,83.72,32.05z"/>
		<path class="st9" d="M107.41,43.9c-1.73,1.08-3.2,1.4-4.5,1.3c-0.65-0.72-0.97-3.13-0.97-3.13c-0.79,0.29-2.45,1.12-3.35,1.12
			c-3.71,0-6.88-1.8-6.88-5.76c0-0.68,0.07-1.33,0.25-1.98c0.43-1.58,1.37-3.17,2.7-4.28c1.22-1.01,2.77-1.48,4.57-1.48
			c0.68,0,1.58,0.14,2.2,0.29v-0.94l-0.07-1.55c-0.25-1.55-0.54-1.44-1.26-1.26c-0.32,0.07-2.3,0.65-2.66,0.83
			c-0.72,0.43-1.66,0.86-2.56,1.73c-0.68-0.47-1.01-1.58-1.33-2.77c-0.22-0.76-0.22-2.23-0.04-2.77c2.05-1.44,4.25-2.16,6.66-2.16
			c1.15,0,2.16,0.18,2.99,0.5c2.02,0.61,3.46,1.91,4,3.74c0.36,1.08,0.5,2.56,0.5,4.36c0,0.86-0.07,1.98-0.07,2.99
			c-0.04,1.58-0.04,2.3-0.04,3.13c0,3.64,0.36,5.72,1.33,6.48C108.88,42.28,108.13,43.46,107.41,43.9z M99.35,33.6
			c-0.76,0-1.33,2.12-1.33,3.13c0,1.55,0.43,2.23,1.08,2.23c0.86,0,2.12-0.43,2.45-1.51l-0.04-2.77l-0.29-0.29
			C100.64,33.82,99.85,33.6,99.35,33.6z"/>
		<path class="st9" d="M125.52,48.29c-1.87-1.55-2.48-2.59-3.85-4.79c-1.04-1.98-2.3-4.97-3.24-7.67l-0.61,0.76
			c0.36,4.25,0.4,2.74,0.54,8.14c-2.52,0.4-3.96,0.32-5.9,0.18c-0.14-4.61,0.04-1.73-0.22-4.54c-0.25-3.06-0.65-7.16-1.19-12.38
			c-0.58-5.65-1.22-11.12-1.58-16.09c1.44-0.65,2.63-0.94,3.6-0.94c0.4,0,1.37-0.14,3.02,0.18c0,0-0.18,1.91-0.18,3.6
			c0.36,4.57,0.83,8.21,1.22,12.74c0.04,0.79,0.11,1.55,0.18,2.27c0.68-0.72,1.48-1.66,2.59-3.06l4-5.11
			c1.62,1.26,2.88,2.38,4.86,4.9c0,0-2.88,2.16-3.67,3.02c-1.19,1.19-2.05,1.73-2.88,2.99c0.36,0.76,0.86,1.69,1.33,2.81
			c1.26,2.2,1.8,3.82,3.35,5.97c1.58,2.27,2.84,2.74,4.32,2.27l0.43,4.64C128.72,48.97,125.52,48.29,125.52,48.29z"/>
		<path class="st9" d="M133.87,22.84c-1.69,0-3.6-1.37-3.6-3.17s1.84-3.13,3.6-3.13c1.91,0,3.46,1.33,3.6,3.13
			C137.36,21.54,135.74,22.84,133.87,22.84z M135.49,44.08c-0.43,0-0.94,0-2.99-0.36c-0.18-3.71-0.72-10.87-1.44-17.49
			c1.94-0.61,4-0.86,6.08-0.58l0.25,2.27l-0.04-0.07c0.11,0.65,0.29,3.31,0.58,6.55c0.14,1.58,0.47,5,0.65,9.18
			C138.58,43.57,136.53,44,135.49,44.08z"/>
		<path class="st9" d="M157.45,40.91c0,0.36,0,0.68,0.25,3.1l-7.05-1.3c0.22-1.37,0.22-2.09,0.32-2.84
			c0.14-0.97,0.32-3.24,0.68-5.11c0.25-1.44,0.47-2.77,0.47-4.36c0-0.94-0.18-1.73-0.54-1.98c-0.65,0.04-3.1,2.23-4.14,3.56
			c0.07,2.27,0.04,3.24,0,4.28c-0.04,0.86-0.18,6.16-0.04,6.73l-6.26,0.54c0,0,0.4-7.92,0.43-10.26c0.04-2.12-0.58-9.54-0.58-9.54
			c1.19-0.29,3.53-0.76,5.9-0.5c0,0,0.14,2.88,0.14,3.31c0.86-1.33,2.88-3.17,4.68-3.56c0.76-0.18,2.16,0,2.81,0.25
			c3.1,1.33,3.74,4.07,3.74,6.77c0,1.22-0.29,2.81-0.43,4.18C157.63,35.47,157.45,38.64,157.45,40.91z"/>
		<path class="st9" d="M174.91,22.44c1.76,1.55,4.03,4.28,4.03,6.3c0,5.08-3.53,8.35-8.96,8.35c-0.36,0-2.23-0.07-2.99-0.36
			c-0.5,0.5-0.22,1.62-0.22,1.62c0,0.14,0.32,0.65,0.9,1.04c0.5-0.25,2.09-0.4,2.7-0.4c4.21,0,7.78,2.92,7.78,7.99
			c0,2.59-0.4,4.54-2.52,6.37c-1.22,1.04-3.78,1.91-5.98,1.91c-3.24,0-9-2.84-9-8.93c0-2.09,0.65-3.74,2.02-5.04
			c-1.12-1.26-1.76-2.45-1.76-3.53c0-1.37,0.5-2.23,1.91-3.02c-1.69-1.48-2.92-3.35-2.92-4.75c0-1.44,0.18-2.81,1.22-4.39
			c2.16-3.24,5.26-4.36,8.71-4.36h1.01c1.04-2.7,3.31-4.21,6.59-4.21c0.94,0,1.91,0.04,1.91,0.04c0.54,1.58,0.54,2.2,0.54,2.84
			c0,0.47-0.22,1.44-0.4,2.12l-0.94-0.4C178.04,21.72,176.02,21.18,174.91,22.44z M172.82,28.53c0-1.08-0.83-2.45-2.34-2.45
			c-0.65,0-1.58,0.18-2.16,0.43c-0.61,0.29-1.94,2.09-1.94,3.42c0,0.25,0.25,0.72,0.58,1.08c0.72,0.9,1.01,1.22,2.99,1.22
			c1.84,0,2.66-1.22,2.84-3.31v-0.07C172.82,28.74,172.82,28.67,172.82,28.53z M168.79,43.82c-1.12,0-2.02,0.68-2.02,2.48
			c0,1.3,0.07,2.56,0.54,3.13c0.61,0.72,1.69,1.04,2.16,1.01c0.83-0.04,2.23-0.61,2.23-2.12C171.7,47.24,171.85,43.82,168.79,43.82z
			"/>
		<path class="st10" d="M207.24,30.33c-1.37,2.05-3.1,3.1-5.29,4.14c-1.12,0.5-2.52,0.79-4.21,0.83c0.25,3.56,0.61,6.95,0.79,10.33
			c-2.74,0.65-4.86,0.79-6.48,0.29c0.14-2.38,0.07-3.49,0.07-4.86c0-0.79-0.22-6.66-0.61-18.65l-1.33,0.36l-0.36-5.11
			c2.02-0.54,7.05-1.8,9.86-1.8c4.61,0,7.63,1.37,9.04,4.1c0.58,1.04,0.83,2.16,0.83,3.31C209.54,25.32,208.6,28.17,207.24,30.33z
			 M202.34,21.61c-0.94-0.5-2.05-0.47-3.35-0.5c-0.4,0-1.01,0.07-1.84,0.22c0.11,3.24,0.25,5.94,0.4,9.11c1.44,0,2.63-0.4,3.53-1.22
			c0.94-0.76,2.23-3.2,2.27-5.25C203.35,22.84,203.02,22.05,202.34,21.61z"/>
		<path class="st10" d="M225.6,43.9c-1.73,1.08-3.2,1.4-4.5,1.3c-0.65-0.72-0.97-3.13-0.97-3.13c-0.79,0.29-2.45,1.12-3.35,1.12
			c-3.71,0-6.88-1.8-6.88-5.76c0-0.68,0.07-1.33,0.25-1.98c0.43-1.58,1.37-3.17,2.7-4.28c1.22-1.01,2.77-1.48,4.57-1.48
			c0.68,0,1.58,0.14,2.2,0.29v-0.94l-0.07-1.55c-0.25-1.55-0.54-1.44-1.26-1.26c-0.32,0.07-2.3,0.65-2.66,0.83
			c-0.72,0.43-1.66,0.86-2.56,1.73c-0.68-0.47-1.01-1.58-1.33-2.77c-0.22-0.76-0.22-2.23-0.04-2.77c2.05-1.44,4.25-2.16,6.66-2.16
			c1.15,0,2.16,0.18,2.99,0.5c2.02,0.61,3.46,1.91,4,3.74c0.36,1.08,0.5,2.56,0.5,4.36c0,0.86-0.07,1.98-0.07,2.99
			c-0.04,1.58-0.04,2.3-0.04,3.13c0,3.64,0.36,5.72,1.33,6.48C227.07,42.28,226.32,43.46,225.6,43.9z M217.53,33.6
			c-0.76,0-1.33,2.12-1.33,3.13c0,1.55,0.43,2.23,1.08,2.23c0.86,0,2.12-0.43,2.45-1.51l-0.04-2.77l-0.29-0.29
			C218.83,33.82,218.04,33.6,217.53,33.6z"/>
		<path class="st10" d="M229.09,44.47c0,0,0.11-3.71,0.14-5.58c0.25-3.82,0.11-7.06,0.11-11.38c0-4.75,0.07-9.68-0.14-14.33
			c0.07-0.9-0.32-2.05-0.58-2.74c1.62-0.61,2.77-0.83,3.92-0.76c0.36,0,2.7,0.22,3.17,0.29c-0.54,6.66-0.32,9.43-0.47,14.43
			c-0.04,2.05-0.04,9.07-0.11,13.39c-0.04,2.52,0.18,5.08,0.25,6.34C234.7,44.51,230.6,44.98,229.09,44.47z"/>
		<path class="st10" d="M250,38.39c0.4,0,1.94-0.22,4.07-0.5c-0.29,2.48-1.08,4.75-2.38,6.88l-2.56-0.47
			c-1.73-0.29-3.49-0.76-4.86-1.48h0.04c-2.38-1.15-3.96-2.52-4.86-4.17c-1.22-2.23-1.73-4.57-1.73-6.95c0-1.4,0.29-3.02,0.79-4.32
			c1.66-4,4.43-6.16,8.03-5.9h-0.04c5.51,0.32,8.21,4.28,8.06,11.84l-10.19,1.84C245.29,37.42,247.12,38.39,250,38.39z
			 M247.84,29.93c-0.07-1.04-0.04-1.69-0.32-2.48c-0.32-0.79-0.76-1.04-1.37-1.04c-0.5-0.04-1.44,0.65-1.87,1.84
			c-0.29,0.86-0.43,1.69-0.43,2.38C245.14,30.36,246.48,30.18,247.84,29.93z"/>
		<path class="st10" d="M265.34,30.79c0,1.3-0.07,3.64-0.07,6.73c0,1.19,0.25,2.41,1.08,2.41c0.61-0.07,2.45-2.77,2.59-3.13
			c1.98,0.29,3.49,0.94,4.68,2.41c-1.58,4.68-6.08,6.88-9.32,6.88c-0.4,0-0.9-0.04-1.33-0.14H263c-2.74-0.58-4.14-2.81-4.1-6.73
			c0-0.68,0-2.27,0.04-4.71v-3.13c-1.15,0.11-2.34,0.18-2.84,0.22v-5.51c0.94,0,2.34,0.11,2.74,0.07c0-1.15,0-2.2,0.07-2.88
			c0.07-2.23,0.36-5.47,0.58-8.75c2.41-0.25,4.5-0.04,6.23,0.65l-0.07,2.2l-0.11,1.44c-0.04,1.33-0.18,2.41-0.29,4.75
			c-0.07,0.83-0.07,0.43-0.07,1.98c1.12-0.11,2.52-0.18,3.64-0.25l2.92-0.18c0.54,1.12,0.5,2.23,0.5,3.02
			c0,0.47-0.11,2.05-0.22,2.59l-3.56,0.04C267.72,30.76,266.2,30.76,265.34,30.79z"/>
		<path class="st10" d="M286.62,29.89c-0.68,0-1.44,0-2.3,0.04c0,1.12,0.04,1.26,0.04,4.14c0.07,1.73,0.68,2.48,1.48,2.45
			c0.97-0.04,2.52-1.48,3.09-2.2c0.97,0.58,2.81,2.3,3.28,3.28c-1.51,3.56-5.65,5.51-8.78,5.51c-0.4,0-0.9-0.04-1.26-0.14
			c-2.66-0.58-4-2.74-3.96-6.55c0-0.65,0-2.05,0.04-4.43v-1.62c-1.15,0.11-3.31,0.25-3.78,0.29c-0.29-1.55-0.22-4.21-0.04-5.47
			c0.94,0.11,3.31-0.04,3.71-0.07c0.04-2.95,0.04-6.59,0.61-9.68c2.34-0.22,4.28,0,5.98,0.65c-0.29,2.84-0.54,5.47-0.47,8.42
			c1.22,0.11,2.63,0.04,3.71-0.04l2.34-0.32c0.47,1.08,0.61,2.2,0.61,2.99c0,0.43-0.07,2.09-0.18,2.59l-1.44,0.11
			C288.59,29.89,287.69,29.89,286.62,29.89z"/>
		<path class="st10" d="M305.33,38.39c0.4,0,1.94-0.22,4.07-0.5c-0.29,2.48-1.08,4.75-2.38,6.88l-2.56-0.47
			c-1.73-0.29-3.49-0.76-4.86-1.48h0.04c-2.38-1.15-3.96-2.52-4.86-4.17c-1.22-2.23-1.73-4.57-1.73-6.95c0-1.4,0.29-3.02,0.79-4.32
			c1.66-4,4.43-6.16,8.03-5.9h-0.04c5.51,0.32,8.21,4.28,8.06,11.84l-10.19,1.84C300.62,37.42,302.46,38.39,305.33,38.39z
			 M303.18,29.93c-0.07-1.04-0.04-1.69-0.32-2.48c-0.32-0.79-0.76-1.04-1.37-1.04c-0.5-0.04-1.44,0.65-1.87,1.84
			c-0.29,0.86-0.43,1.69-0.43,2.38C300.48,30.36,301.81,30.18,303.18,29.93z"/>
	</g>
</g>
</svg>
